<svg xmlns="http://www.w3.org/2000/svg" viewBox="0 0 1200 800" role="img" aria-label="Default reward image">
  <defs>
    <linearGradient id="bg" x1="0" y1="0" x2="1" y2="1">
      <stop offset="0%" stop-color="#fff7ed" />
      <stop offset="100%" stop-color="#fde68a" />
    </linearGradient>
    <linearGradient id="box" x1="0" y1="0" x2="0" y2="1">
      <stop offset="0%" stop-color="#fb923c" />
      <stop offset="100%" stop-color="#f97316" />
    </linearGradient>
  </defs>
  <rect width="1200" height="800" fill="url(#bg)" />
  <g transform="translate(600 420)">
    <rect x="-190" y="-80" width="380" height="220" rx="32" fill="url(#box)" />
    <rect x="-210" y="-120" width="420" height="60" rx="30" fill="#fdba74" />
    <rect x="-24" y="-120" width="48" height="280" rx="24" fill="#fff7ed" opacity="0.9" />
    <path d="M0 -120 C -110 -250, -260 -80, -60 -24 C -26 -15, -4 -35, 0 -58 C 4 -35, 26 -15, 60 -24 C 260 -80, 110 -250, 0 -120Z" fill="#fff7ed" opacity="0.95"/>
  </g>
  <g fill="#fb923c" opacity="0.45">
    <circle cx="180" cy="150" r="10" />
    <circle cx="1030" cy="190" r="14" />
    <circle cx="1040" cy="620" r="9" />
    <circle cx="180" cy="620" r="12" />
  </g>
</svg>
